<?xml version="1.0" encoding="utf-8"?>
<!-- Designed by Vexels.com - 2020 All Rights Reserved - https://vexels.com/terms-and-conditions/  -->
<svg version="1.1" id="Capa_1" xmlns="http://www.w3.org/2000/svg" xmlns:xlink="http://www.w3.org/1999/xlink" x="0px" y="0px"
	 viewBox="0 0 1200 1200" enable-background="new 0 0 1200 1200" xml:space="preserve">
<g>
	<path fill="#FAF6ED" d="M1017.394,312.184c0.713,5.141,1.747,10.307,3.345,14.809c-6.101,4.821-12.004,9.717-17.711,13.997
		c-17.318,13.037-34.66,26.026-52.051,38.965c-13.431,9.987-26.591,20.319-40.588,29.543c-10.553,6.937-21.057,13.825-33.061,16.383
		c-0.517-3.444-0.959-6.888-1.378-10.356c1.525-0.394,3.001-1.23,4.354-2.706c21.721-23.615,47.869-42.482,74.485-60.193
		c13.505-8.954,27.206-17.613,40.834-26.395C1002.536,321.802,1010.334,317.35,1017.394,312.184z"/>
	<path fill="#FAF6ED" d="M1028.34,194.552c1.722,5.166,2.976,10.651,4.748,15.915c-7.699,2.066-15.276,4.551-23.32,5.855
		c-13.628,2.238-27.502,2.657-41.228,3.911c-30.404,2.829-60.784,5.855-91.163,8.88c-56.184,5.559-112.318,15.645-168.847,16.604
		c-10.258,0.172-20.515-0.123-30.798-0.664c-1.82-4.034-4.403-7.847-6.691-12.078c2.116-0.025,4.206-0.049,6.322-0.098
		c18.597-0.467,37.243-2.116,55.741-4.157c19.507-2.165,39.161-4.6,58.471-8.142c11.684-2.14,24.771-4.231,35.447-9.618
		c7.134-3.591,3.641-14.981-4.01-14.833c-28.609,0.59-57.463,5.904-85.924,8.782c-17.441,1.747-34.906,3.591-52.42,4.428
		c-6.617,0.32-13.234,0.492-19.851,0.32c-0.763-0.025-1.525-0.074-2.288-0.123c-1.082-4.575-1.943-9.2-2.607-13.751
		c-0.32-2.066-0.541-4.133-0.763-6.199c16.137,0.344,32.224,0.197,48.386-0.91c18.867-1.279,40.318-2.583,57.315-11.414
		c5.264-2.73,2.657-10.873-2.952-10.897c-19.335-0.049-39.014,4.01-58.299,5.682c-15.177,1.328-30.38,2.484-45.582,3.395
		c-0.246-5.486-0.295-10.971-0.098-16.432c0.271-7.65,1.697-15.374,2.484-23.025c9.618-1.796,19.187-3.985,29.051-5.436
		c54.167-8.044,109.44-6.961,163.927-12.545c55.003-5.658,110.006-11.315,165.009-16.973c0.689,7.404,1.181,14.661,0.935,22.164
		c-32.003-0.713-63.859,5.043-95.394,9.987c-18.006,2.804-36.013,5.658-54.142,7.404c-16.998,1.648-34.438,1.009-51.239,3.887
		c-7.208,1.23-5.535,10.922,0,12.988c30.749,11.488,70.918,2.853,102.257-2.361c34.98-5.83,69.812-12.545,105.357-13.8
		c0.197,8.806,0.935,18.105,3.444,26.641c-17.539,2.435-34.906,5.781-52.519,8.068c-8.683,1.107-8.905,12.767,0,13.677
		c16.407,1.697,33.11,1.107,49.665-0.098C1027.209,191.158,1027.75,192.806,1028.34,194.552z"/>
	<path fill="#FAF6ED" d="M1015.377,289.529c0.098,1.009,0.172,2.189,0.271,3.468c-10.774,5.117-20.835,12.693-30.724,18.867
		c-14.341,8.954-28.731,17.785-42.9,27.01c-24.181,15.792-47.894,32.667-68.385,53.109c-0.64-7.773-1.255-15.546-1.968-23.32
		c17.736-13.603,38.251-23.246,57.488-34.463c15.842-9.249,44.18-23.517,47.648-43.712c0.64-3.665-2.288-7.699-6.396-6.396
		c-9.913,3.124-18.302,11.66-26.788,17.465c-10.012,6.839-20.417,13.013-30.921,19.089c-14.907,8.683-29.715,17.539-43.171,28.264
		c-0.861-6.74-1.919-13.431-3.247-20.097c0.025-0.246,0.049-0.517,0.049-0.787c24.279-11.315,47.008-27.354,69.812-41.154
		c24.058-14.563,48.091-29.346,72.591-43.171c1.747-0.172,3.493-0.394,5.215-0.64
		C1013.237,258.534,1013.852,274.031,1015.377,289.529z"/>
	<path fill="#FAF6ED" d="M1010.482,579.943c0.369,4.526,1.033,9.003,2.189,13.16c-36.062,20.565-71.017,43.958-109.44,59.308
		c-16.85,6.74-33.946,12.89-51.043,19.015c-1.328,0.492-2.755,0.959-4.206,1.451c1.476-13.529,1.23-26.739,0.148-40.244
		c14.144-6.002,27.846-12.841,41.67-19.704l2.952,6.297c-6.346,3.099-5.879,12.939,0,16.186c9.323,5.117,21.795-1.058,30.576-4.748
		c14.661-6.15,28.781-13.529,42.531-21.499c13.702-7.97,27.379-16.309,40.072-25.804
		C1007.431,582.23,1008.957,581.099,1010.482,579.943z"/>
	<path fill="#FAF6ED" d="M1041.673,399.978c-2.558,6.371-4.329,13.283-5.707,20.196c-9.52,1.009-19.31,4.403-27.797,6.937
		c-11.537,3.419-27.403,7.355-35.324,17.145c-2.854,3.542-1.501,10.873,4.256,10.258c12.25-1.279,24.328-5.584,36.48-7.872
		c5.633-1.033,12.201-1.624,18.597-2.73c-0.025,0.295-0.074,0.615-0.123,0.91c-0.763,5.19-1.501,10.43-2.189,15.694
		c-4.452,0.64-8.905,1.378-13.333,2.214c-8.044,1.574-17.022,2.411-24.058,6.838c-4.748,3.001-3.714,9.938,1.525,11.66
		c8.314,2.706,18.105,1.107,26.641-0.025c2.46-0.344,4.846-0.763,7.208-1.279c-0.59,7.798-0.836,15.596-0.64,23.369
		c-8.167,1.402-16.284,3.198-24.205,4.772c-20.097,3.985-40.072,8.683-60.021,13.382c-35.422,8.314-71.091,14.489-106.759,21.327
		c-1.82,0-3.616,0.32-5.289,1.009c-1.894,0.369-3.813,0.738-5.707,1.107c-19.433,3.813-38.817,7.896-58.25,11.561
		c-9.2,1.747-18.4,3.395-27.625,4.871c-4.502,0.738-10.331,2.976-14.661,2.853c-2.263-0.049-4.526-1.353-6.765-1.673
		c-0.295-0.221-0.64-0.443-0.959-0.664c-1.427-4.329-3.026-8.61-4.452-12.964c34.143,0.664,69.541-10.479,102.356-16.555
		c20.171-3.764,40.637-5.707,60.956-8.511c21.598-3.026,46.516-6.199,65.064-18.597c7.109-4.723,2.411-14.415-5.559-13.185
		c-21.524,3.321-42.654,8.437-64.326,11.242c-19.556,2.534-39.186,4.379-58.57,8.068c-34.66,6.568-68.729,15.497-103.906,18.351
		c-0.64-6.273-0.787-12.619-0.467-18.892c21.844-4.256,43.269-7.945,65.704-9.963c24.5-2.214,51.953-1.673,74.928-11.34
		c6.789-2.853,6.199-12.619-1.771-13.136c-26.641-1.771-54.388,2.165-80.93,4.551c-17.391,1.574-37.07,2.829-54.88,7.699
		c1.525-6.42,3.616-12.742,6.371-18.646c4.354-9.397,10.356-16.137,17.121-23.197c41.326,2.878,164.419,0.443,177.751-7.724
		c9.643-5.928,18.843-12.57,27.871-19.408c28.436-3.493,56.11-13.308,84.497-17.342
		C1030.358,401.478,1036.015,400.715,1041.673,399.978z"/>
	<path fill="#FAF6ED" d="M1009.768,533.328c-0.541,7.921-0.394,15.989-0.123,23.64c-17.49,11.537-34.586,23.467-52.986,33.75
		c-12.275,6.863-24.722,13.603-37.562,19.31c-8.487,3.764-18.129,5.19-26.345,9.2l-2.952-6.297
		c9.323-4.6,18.695-9.151,28.141-13.529c8.659-4.034,18.72-6.937,23.197-15.915c1.722-3.493,0.394-8.167-3.764-9.2
		c-8.659-2.165-15.325,1.648-23.123,5.313c-10.159,4.772-20.294,9.815-30.158,15.202c-12.619,6.912-24.943,14.292-37.562,21.155
		c-1.697-16.432-2.952-32.938,0.418-49.075c24.377-4.379,48.73-8.929,72.886-14.144c23.123-4.994,46.074-10.602,69.197-15.62
		C995.845,535.64,1002.782,534.435,1009.768,533.328z"/>
	<path fill="#FAF6ED" d="M1014.221,666.236c7.552,18.818,17.613,37.095,21.057,57.069c-22.385,23.763-54.56,35.619-81.594,53.109
		c-16.752,10.823-33.208,22.065-50.624,31.856c-12.029,6.765-24.328,11.955-36.825,16.998c1.82-12.668,3.714-28.953,3.714-28.953
		s34.98-18.671,46.59-28.141c12.668-10.356,25.927-20.343,37.981-31.413c4.477-4.108-0.369-10.356-5.486-9.421
		c-15.448,2.804-28.289,12.619-40.121,22.41c-12.472,10.307-39.014,33.11-39.309,34.119c0.369-10.282,0.541-20.565,0.812-30.749
		c0.394-15.177,0.517-30.38,0.935-45.557c0.197-6.519,0.959-13.554,0.763-20.368c14.489-4.428,28.879-9.102,42.999-14.587
		c35.152-13.702,67.475-33.627,100.265-52.371c-0.025,6.002-0.861,12.398-1.574,17.908c-4.551,3.69-44.057,31.487-55.889,36.948
		c-12.791,5.904-26.887,11.684-35.472,23.369c-2.854,3.862,1.845,7.601,5.461,7.109c14.833-2.042,30.429-10.159,43.983-16.358
		C982.833,684.168,1010.998,666.728,1014.221,666.236z"/>
	<path fill="#FAF6ED" d="M1030.997,854.392c0.172,3.911,0.394,7.798,0.664,11.66c-5.289,2.927-10.528,5.879-15.817,8.782
		c-24.943,13.751-50.624,26.124-75.691,39.629c-45.631,24.574-95.763,45.262-134.703,80.045c0.443-8.093,0.467-16.235,0.886-24.181
		c14.759-7.084,28.608-16.899,42.876-24.746c17.022-9.348,35.718-17.81,51.387-29.346c5.609-4.157,2.46-13.185-4.871-11.561
		c-19.999,4.452-39.998,15.202-58.004,24.697c-9.2,4.871-20.54,10.233-30.134,17.121c0.295-6.125,0.492-12.275,0.64-18.4
		c19.335-8.462,37.882-18.917,57.168-27.502c27.723-12.324,55.052-25.583,82.455-38.645c27.108-12.939,55.224-25.484,82.382-39.481
		c0,2.706,0.074,5.313,0.098,7.626c0.025,1.771,0.074,3.591,0.098,5.363c-9.249,3.813-18.105,9.028-26.985,13.333
		c-12.25,5.904-24.673,11.709-36.628,18.179c-3.813,2.091-2.288,8.979,2.312,8.536c13.948-1.304,27.748-6.494,40.588-11.857
		C1016.754,860.69,1024.036,857.812,1030.997,854.392z"/>
	<path fill="#280412" d="M1101.079,380.618c2.14,4.206,0.664,11.192-4.895,12.029c-10.479,1.624-20.983,3.026-31.486,4.379
		c-8.216,33.725-13.529,69.098-11.783,103.955c2.189,0.049,4.379,0.172,6.543,0.369c12.029,1.156,15.128,17.613,2.903,21.45
		c-10.184,3.198-20.835,5.313-31.585,7.134c2.632,16.604,2.73,33.75,5.707,50.378c13.505-4.625,24.427,15.448,10.725,22.508
		c-4.969,2.558-9.913,5.19-14.808,7.872c2.681,9.495,2.607,20.146,1.968,29.543c-0.197,2.927-1.082,5.609-2.386,8.118
		c0.369,0.64,0.713,1.328,0.984,2.042c10.381,25.435,26.124,49.148,28.805,77.068c0.492,5.338-1.746,8.905-5.116,10.774
		c-0.221,0.32-0.443,0.664-0.713,0.935c-9.913,11.119-21.77,19.777-34.34,27.428c3.05,0.221,70.992,18.794,57.561,27.625
		c-9.298,6.125-18.917,11.881-28.707,17.367c1.082,14.046,3.149,27.993,4.575,41.966c7.257-3.837,15.227-7.724,23.025-7.355
		c4.551,0.197,12.176,16.161,8.093,19.531c-7.872,6.543-18.744,9.618-27.846,14.267c-9.963,5.067-19.728,10.479-29.568,15.768
		c3.469,13.702,7.38,64.277,7.38,64.277s9.471-6.568,14.12-10.036c8.536-6.445,18.917,17.834,15.792,20.466
		c-43.294,36.111-97.657,55.446-145.33,84.694c-23.984,14.686-46.689,31.388-70.008,47.107
		c-16.875,11.365-63.44,43.54-70.205,45.852c-8.29,2.804-16.998,1.919-25.484,0.812c-15.079-1.943-30.109-4.428-45.139-6.666
		c-38.35-5.731-76.552-12.127-114.803-18.425c-75.961-12.472-151.701-26.271-227.023-42.236
		c-75.076-15.915-149.709-34.02-223.358-55.569c-10.725-3.149-21.549-6.15-32.151-9.667c-4.92-1.624-9.052-2.927-12.349-7.084
		c-5.879-7.38,1.673-80.02,3.911-106.316c0.074-1.009,0.344-1.919,0.713-2.78c0.812-2.804,2.829-5.166,5.978-5.855
		c13.431-2.903,69.443-15.202,84.177-17.342c-5.215-9.175-8.388-19.409-10.086-30.06c-0.836-5.215,7.626-49.518,7.626-49.518
		s-15.03-69.147-16.26-82.8c-1.378-15.473-2.091-31.167-0.517-46.639c0.64-6.199,1.87-12.25,3.149-18.302
		c-1.132-0.418-2.263-0.787-3.37-1.23c-23.246-9.421-21.573-30.183-20.934-51.51c0.689-22.926-9.938-54.314,4.969-74.264
		c12.545-16.776,34.045-13.16,52.051-17.81c-14.587-15.104-19.605-40.76-19.753-60.464c-0.123-17.662,3.985-36.677,14.366-51.067
		c-10.799-2.484-49.124-5.928-53.675-74.584c-1.402-21.18,5.83-74.559,15.178-81.053c13.136-9.151,40.219-17.391,51.141-19.95
		c11.315-2.657,22.877-5.092,34.512-6.863c-0.984-0.935-1.673-2.066-2.115-3.272c-10.996-9.864-13.456-34.414-15.202-45.975
		c-3.198-21.376-7.134-48.115,2.681-68.36c1.378-2.829,4.797-4.452,7.798-4.477c5.363-0.049,115.295-11.119,165.28-18.695
		c27.059-4.108,53.625-10.848,80.586-15.423c12.349-2.091,24.82-3.911,37.316-4.502c9.84-0.492,111.777,0.418,153.079,0.049
		c41.203-0.369,82.406-0.418,123.609,0.787c40.785,1.181,81.594,3.591,122.158,8.265c40.44,4.625,82.578,6.248,122.158,16.088
		c13.529,3.37,9.052,21.401-3.075,22.631c-5.461,0.566-10.922,1.132-16.383,1.697c2.681,8.511,0.172,27.354,0.172,27.354
		l11.217-1.771c0,0,8.929,62.186,9.077,62.825c1.894,8.216,3.714,17.244,3.567,25.853c0.984,3.665,0.32,8.118-1.894,10.922
		c-5.707,7.232-13.972,11.783-23.394,14.71c1.574,14.981,3.05,29.986,5.018,44.918c1.279,9.618,2.706,19.285,5.043,28.707
		c5.584-3.37,11.34-6.199,17.244-8.019c6.543-2.017,13.185,6.051,9.175,11.93c-10.282,15.079-27.354,26.911-42.925,38.153
		c15.423,2.091,66.54,7.872,72.148,14.735C1098.029,372.894,1099.407,377.297,1101.079,380.618z M1058.154,380.717
		c2.853-0.32,4.452-3.124,0.418-4.01c-16.112-3.616-32.126-8.044-48.312-11.561c-12.718,9.938-25.46,19.802-38.202,29.715
		c16.727-3.739,33.405-8.019,50.305-10.012c10.971-1.304,21.942-2.534,32.938-3.788
		C1056.236,380.766,1057.195,380.643,1058.154,380.717z M1035.966,420.173c1.378-6.912,3.149-13.825,5.707-20.196
		c-5.658,0.738-11.316,1.501-16.949,2.312c-28.387,4.034-56.061,13.849-84.497,17.342c-9.028,6.838-18.228,13.48-27.871,19.408
		c-13.333,8.167-136.425,10.602-177.751,7.724c-6.765,7.06-12.767,13.8-17.121,23.197c-2.755,5.904-4.846,12.226-6.371,18.646
		c17.81-4.871,37.489-6.125,54.88-7.699c26.542-2.386,54.29-6.322,80.93-4.551c7.97,0.517,8.56,10.282,1.771,13.136
		c-22.975,9.667-50.428,9.126-74.928,11.34c-22.434,2.017-43.86,5.707-65.704,9.963c-0.32,6.273-0.172,12.619,0.467,18.892
		c35.176-2.853,69.246-11.783,103.906-18.351c19.384-3.69,39.014-5.535,58.57-8.068c21.672-2.804,42.802-7.921,64.326-11.242
		c7.97-1.23,12.668,8.462,5.559,13.185c-18.547,12.398-43.466,15.571-65.064,18.597c-20.319,2.804-40.785,4.748-60.956,8.511
		c-32.815,6.076-68.213,17.219-102.356,16.555c1.427,4.354,3.026,8.634,4.452,12.964c0.32,0.221,0.664,0.443,0.959,0.664
		c2.239,0.32,4.502,1.624,6.765,1.673c4.329,0.123,10.159-2.116,14.661-2.853c9.225-1.476,18.425-3.124,27.625-4.871
		c19.433-3.665,38.817-7.749,58.25-11.561c1.894-0.369,3.813-0.738,5.707-1.107c1.673-0.689,3.468-1.009,5.289-1.009
		c35.668-6.839,71.337-13.013,106.759-21.327c19.95-4.698,39.924-9.397,60.021-13.382c7.921-1.574,16.038-3.37,24.205-4.772
		c-0.197-7.773,0.049-15.571,0.64-23.369c-2.362,0.517-4.748,0.935-7.208,1.279c-8.536,1.132-18.326,2.73-26.641,0.025
		c-5.24-1.722-6.273-8.659-1.525-11.66c7.035-4.428,16.014-5.264,24.058-6.838c4.428-0.836,8.88-1.574,13.333-2.214
		c0.689-5.264,1.427-10.504,2.189-15.694c0.049-0.295,0.098-0.615,0.123-0.91c-6.396,1.107-12.964,1.697-18.597,2.73
		c-12.152,2.288-24.23,6.592-36.48,7.872c-5.756,0.615-7.109-6.715-4.256-10.258c7.921-9.79,23.787-13.726,35.324-17.145
		C1016.656,424.576,1026.446,421.182,1035.966,420.173z M936.513,839.412c21.622-10.651,97.485-45.557,97.264-48.78
		c-0.59-8.856-24.796-4.723-45.188-5.756c-8.241,4.428-16.383,8.929-24.156,13.874c-18.72,11.906-37.292,24.23-57.192,34.094
		c-17.121,8.487-36.283,17.293-55.716,17.81c-44.721,6.642-92.197-1.673-137.139-3.788c-90.524-4.256-180.9-11.34-271.153-19.581
		c-28.879-2.657-88.851-8.61-117.829-10.701c-15.866-1.132-25.976,2.042-11.881,4.748c80.66,15.473,192.707,32.766,273.539,47.205
		c43.442,7.749,86.883,15.522,130.128,24.304c26.149,5.313,53.552,9.84,78.839,18.867c18.72-12.668,40.49-21.573,60.341-32.2
		C882.691,865.437,909.725,852.597,936.513,839.412z M1031.661,866.052c-0.271-3.862-0.492-7.749-0.664-11.66
		c-6.962,3.419-14.243,6.297-21.278,9.249c-12.841,5.363-26.641,10.553-40.588,11.857c-4.6,0.443-6.125-6.445-2.312-8.536
		c11.955-6.469,24.377-12.275,36.628-18.179c8.88-4.305,17.736-9.52,26.985-13.333c-0.025-1.771-0.074-3.591-0.098-5.363
		c-0.025-2.312-0.098-4.92-0.098-7.626c-27.157,13.997-55.274,26.542-82.382,39.481c-27.403,13.062-54.732,26.321-82.455,38.645
		c-19.285,8.585-37.833,19.04-57.168,27.502c-0.148,6.125-0.344,12.275-0.64,18.4c9.594-6.888,20.934-12.25,30.134-17.121
		c18.006-9.495,38.005-20.245,58.004-24.697c7.33-1.624,10.479,7.404,4.871,11.561c-15.669,11.537-34.365,19.999-51.387,29.346
		c-14.267,7.847-28.117,17.662-42.876,24.746c-0.418,7.945-0.443,16.088-0.886,24.181c38.94-34.783,89.072-55.47,134.703-80.045
		c25.066-13.505,50.747-25.878,75.691-39.629C1021.133,871.931,1026.373,868.979,1031.661,866.052z M1033.088,210.468
		c-1.771-5.264-3.026-10.75-4.748-15.915c-0.59-1.747-1.132-3.395-1.574-4.969c-16.555,1.205-33.258,1.796-49.665,0.098
		c-8.905-0.91-8.683-12.57,0-13.677c17.613-2.288,34.98-5.633,52.519-8.068c-2.509-8.536-3.247-17.834-3.444-26.641
		c-35.545,1.255-70.377,7.97-105.357,13.8c-31.339,5.215-71.509,13.849-102.257,2.361c-5.535-2.066-7.208-11.758,0-12.988
		c16.801-2.878,34.242-2.238,51.239-3.887c18.129-1.747,36.136-4.6,54.142-7.404c31.536-4.944,63.391-10.701,95.394-9.987
		c0.246-7.503-0.246-14.759-0.935-22.164c-55.003,5.658-110.006,11.315-165.009,16.973c-54.487,5.584-109.76,4.502-163.927,12.545
		c-9.864,1.451-19.433,3.641-29.051,5.436c-0.787,7.65-2.214,15.374-2.484,23.025c-0.197,5.461-0.148,10.946,0.098,16.432
		c15.202-0.91,30.404-2.066,45.582-3.395c19.286-1.673,38.965-5.732,58.299-5.682c5.609,0.025,8.216,8.167,2.952,10.897
		c-16.998,8.831-38.448,10.135-57.315,11.414c-16.161,1.107-32.249,1.255-48.386,0.91c0.221,2.066,0.443,4.133,0.763,6.199
		c0.664,4.551,1.525,9.175,2.607,13.751c0.763,0.049,1.525,0.098,2.288,0.123c6.617,0.172,13.234,0,19.851-0.32
		c17.514-0.836,34.98-2.681,52.42-4.428c28.461-2.878,57.315-8.191,85.924-8.782c7.65-0.148,11.143,11.242,4.01,14.833
		c-10.676,5.387-23.763,7.478-35.447,9.618c-19.31,3.542-38.965,5.978-58.471,8.142c-18.498,2.042-37.144,3.69-55.741,4.157
		c-2.115,0.049-4.206,0.074-6.322,0.098c2.288,4.231,4.871,8.044,6.691,12.078c10.282,0.541,20.54,0.836,30.798,0.664
		c56.528-0.959,112.663-11.045,168.847-16.604c30.38-3.026,60.759-6.051,91.163-8.88c13.726-1.255,27.6-1.673,41.228-3.911
		C1017.812,215.019,1025.389,212.534,1033.088,210.468z M1035.277,723.305c-3.444-19.974-13.505-38.251-21.057-57.069
		c-3.222,0.492-31.388,17.933-42.335,22.975c-13.554,6.199-29.15,14.317-43.983,16.358c-3.616,0.492-8.314-3.247-5.461-7.109
		c8.585-11.684,22.68-17.465,35.472-23.369c11.832-5.461,51.338-33.258,55.889-36.948c0.713-5.51,1.55-11.906,1.574-17.908
		c-32.79,18.744-65.113,38.669-100.265,52.371c-14.12,5.486-28.51,10.159-42.999,14.587c0.197,6.814-0.566,13.849-0.763,20.368
		c-0.418,15.177-0.541,30.38-0.935,45.557c-0.271,10.184-0.443,20.466-0.812,30.749c0.295-1.009,26.837-23.812,39.309-34.119
		c11.832-9.79,24.673-19.605,40.121-22.41c5.117-0.935,9.963,5.313,5.486,9.421c-12.053,11.07-25.312,21.057-37.981,31.413
		c-11.611,9.471-46.59,28.141-46.59,28.141s-1.894,16.284-3.714,28.953c12.496-5.043,24.796-10.233,36.825-16.998
		c17.416-9.79,33.873-21.032,50.624-31.856C980.717,758.924,1012.892,747.067,1035.277,723.305z M1020.739,326.993
		c-1.599-4.502-2.632-9.667-3.345-14.809c-7.06,5.166-14.858,9.618-21.77,14.046c-13.628,8.782-27.329,17.441-40.834,26.395
		c-26.616,17.711-52.765,36.579-74.485,60.193c-1.353,1.476-2.829,2.312-4.354,2.706c0.418,3.468,0.861,6.912,1.378,10.356
		c12.004-2.558,22.508-9.446,33.061-16.383c13.997-9.225,27.157-19.556,40.588-29.543c17.391-12.939,34.734-25.927,52.051-38.965
		C1008.735,336.709,1014.639,331.814,1020.739,326.993z M1015.943,972.983c-0.394-9.889,0.025-19.901-0.615-29.814
		c-17.687,9.446-36.111,17.711-53.601,27.551c-21.352,11.98-41.769,28.043-64.228,37.759c-5.855,2.534-10.504-3.616-6.617-8.585
		c15.128-19.409,40.613-32.987,61.497-45.188c19.113-11.192,39.481-23.172,60.735-30.503c-0.935-6.199-2.115-12.349-3.567-18.425
		c-19.138,9.741-38.497,19.064-57.512,29.027c-47.697,25.017-97.411,46.221-142.673,75.617l-4.797,17.219
		c-1.943,4.649-4.477,19.679-4.403,22.36c6.519-5.609,12.914-11.34,19.605-16.703c10.208-8.167,22.016-17.687,35.299-19.531
		c5.289-0.713,10.061,5.166,5.584,9.594c-10.332,10.233-22.729,18.917-33.848,28.362c-8.068,6.863-16.186,13.529-24.943,19.335
		c0.221,2.853,0.443,5.707,0.566,8.585c0.369,7.404,1.009,16.629,0.64,25.976c12.053-7.823,24.402-15.325,35.841-23.517
		c22.336-16.088,44.426-32.569,67.696-47.304C942.121,1012.317,980.176,994.704,1015.943,972.983z M1015.647,292.997
		c-0.098-1.279-0.172-2.46-0.271-3.468c-1.525-15.497-2.14-30.995-1.427-46.467c-1.722,0.246-3.468,0.467-5.215,0.64
		c-24.5,13.825-48.534,28.608-72.591,43.171c-22.803,13.8-45.532,29.838-69.812,41.154c0,0.271-0.025,0.541-0.049,0.787
		c1.328,6.666,2.386,13.357,3.247,20.097c13.456-10.725,28.264-19.581,43.171-28.264c10.504-6.076,20.909-12.25,30.921-19.089
		c8.487-5.805,16.875-14.341,26.788-17.465c4.108-1.304,7.035,2.73,6.396,6.396c-3.468,20.196-31.806,34.463-47.648,43.712
		c-19.236,11.217-39.752,20.86-57.488,34.463c0.713,7.773,1.328,15.546,1.968,23.32c20.491-20.442,44.204-37.316,68.385-53.109
		c14.169-9.225,28.559-18.056,42.9-27.01C994.812,305.69,1004.873,298.114,1015.647,292.997z M1012.671,593.103
		c-1.156-4.157-1.82-8.634-2.189-13.16c-1.525,1.156-3.05,2.288-4.551,3.419c-12.693,9.495-26.37,17.834-40.072,25.804
		c-13.751,7.97-27.871,15.35-42.531,21.499c-8.782,3.69-21.253,9.864-30.576,4.748c-5.879-3.247-6.346-13.087,0-16.186
		c8.216-4.01,17.859-5.436,26.345-9.2c12.841-5.707,25.288-12.447,37.562-19.31c18.4-10.282,35.496-22.213,52.986-33.75
		c-0.271-7.65-0.418-15.719,0.123-23.64c-6.986,1.107-13.923,2.312-20.737,3.788c-23.123,5.018-46.074,10.627-69.197,15.62
		c-24.156,5.215-48.509,9.766-72.886,14.144c-3.37,16.137-2.116,32.643-0.418,49.075c12.619-6.863,24.943-14.243,37.562-21.155
		c9.864-5.387,19.999-10.43,30.158-15.202c7.798-3.665,14.464-7.478,23.123-5.313c4.157,1.033,5.486,5.707,3.764,9.2
		c-4.477,8.979-14.538,11.881-23.197,15.915c-9.446,4.379-18.818,8.929-28.141,13.529c-13.825,6.863-27.526,13.702-41.67,19.704
		c1.082,13.505,1.328,26.714-0.148,40.244c1.451-0.492,2.878-0.959,4.206-1.451c17.096-6.125,34.192-12.275,51.043-19.015
		C941.654,637.061,976.609,613.668,1012.671,593.103z M925.517,268.693c11.438-7.355,23.049-14.489,34.611-21.622
		c-32.397,2.976-64.793,6.076-97.165,9.298c-57.537,5.707-115.172,16.653-173.201,14.71c-28.658-0.959-57.315-4.403-85.924-6.519
		c-62.555-4.575-125.626-12.619-187.468-23.074c-29.568-4.994-58.963-9.766-88.851-12.299c-16.58-1.427-33.11-3.001-48.903-7.478
		c-15.694,4.698-32.397,6.863-48.189,10.774c-11.192,2.755-30.921,6.15-43.269,14.341c42.458,10.036,86.047,14.759,129.513,18.105
		c42.753,3.296,85.555,5.486,128.209,9.717c46.713,4.649,93.353,10.159,139.992,15.522c46.615,5.363,93.23,11.242,139.992,15.251
		c22.852,1.943,45.803,2.853,68.729,4.059c20.786,1.107,45.606-0.049,65.212,7.699C877.476,297.695,903.206,283.01,925.517,268.693z
		 M713.992,105.382c54.486-5.338,260.158-16.112,260.158-16.112c-0.221-15.423-452.225-22.434-452.225-22.434
		S410.515,84.497,378.463,88.679c-19.802,2.583-21.77,7.478-19.482,7.675c12.718,1.132,59.701,2.066,72.419,3.272
		c49.788,4.698,99.625,8.536,149.438,12.865c20.294,1.771,41.326,5.436,61.694,4.206c11.512-0.713,22.803-4.551,34.192-6.445
		C689.073,108.161,701.52,106.611,713.992,105.382z M850.245,698.411c0.221-1.747,0.443-3.518,0.689-5.313
		c-2.681,0.59-13.726,9.692-19.187,11.611c-11.512,3.985-27.821,1.378-39.555,0.664c-41.769-2.534-83.612-7.478-125.331-10.946
		c-23.148-1.919-46.295-3.837-69.443-5.756c2.091,2.878,4.059,5.781,5.904,8.61c9.938,15.202,17.687,32.446,22.582,49.936
		c6.076,21.647,7.749,50.329-3.862,70.771c36.997,2.509,73.993,4.526,110.99,6.691c19.113,1.107,38.104,3.345,57.143,5.067
		c16.358,1.501,32.692,1.771,49.05,2.337c0.615-4.895,2.066-9.913,2.607-14.144c3.37-27.305,3.911-54.905,5.486-82.357
		C848.031,723.182,848.695,710.735,850.245,698.411z M849.359,425.683c-3.714-29.568,2.362-60.267,0.861-89.983
		c-10.233,0.148-20.319-1.279-30.675-2.042c-4.551-0.344-9.126-0.64-13.677-0.935c-2.042,9.84-3.936,19.556-3.788,29.814
		c0.197,12.521,2.583,24.845,5.805,36.898c1.107,4.108,5.756,15.522,7.872,25.976C826.95,425.536,838.167,425.61,849.359,425.683z
		 M820.849,678.732c1.747-7.453,2.509-27.083,2.435-30.33c-0.738-25.755-6.224-51.289-3.493-76.699
		c-9.815,1.747-19.654,3.518-29.445,5.313c1.378,32.889-0.541,67.376,9.2,98.789c-0.098,0.025-0.172,0.049-0.271,0.074
		c0.271,0.763,0.443,1.599,0.59,2.46c0.443,0.025,0.886,0.049,1.328,0.074C807.541,678.56,814.576,677.748,820.849,678.732z
		 M788.944,968.851c0.394-13.751,0.787-27.502,0.861-41.277c-27.6-6.47-55.347-12.152-83.218-17.367
		c-3.419,11.586-6.027,23.467-7.06,35.496c-0.664,7.453-1.132,15.03-0.541,22.483c0.172,2.435,0.418,4.674,0.517,6.789
		c3.296,0.64,6.593,1.304,9.913,1.894c26.37,4.821,53.306,9.2,78.643,18.154C788.034,986.242,788.698,977.411,788.944,968.851z
		 M790.15,424.97c-0.664-2.362-1.23-4.649-1.845-6.642c-3.591-11.709-6.371-23.615-7.995-35.742
		c-2.238-16.58-2.657-35.078,2.927-51.264c-0.467-0.025-0.959-0.049-1.451-0.074c-26.272-1.525-52.445-3.296-78.618-6.174
		c-93.623-10.307-186.927-23.91-280.771-32.249c-63.809-5.682-128.701-7.134-192.019-17.588c-1.673,14.218-5.51,28.289-6.076,42.679
		c-0.787,19.138,2.435,37.907,10.061,55.52c21.967,2.238,44.155,2.681,66.614,4.083c44.967,2.804,89.515,11.02,134.334,15.399
		c48.509,4.772,97.043,9.052,145.502,14.169c47.574,4.994,95.148,10.799,142.846,14.686
		C745.798,423.568,767.961,424.478,790.15,424.97z M774.431,1025.33c1.181-2.484,8.437-12.718,8.437-12.718
		s-170.126-31.905-206.36-40.17c-41.351-9.421-82.874-18.105-124.446-26.616c-41.449-8.511-82.898-16.899-124.2-26.099
		c-35.299-7.872-105.652-27.969-105.652-27.969l-64.277,10.381c0,0,28.412,5.51,42.556,8.29
		c120.436,23.566,240.798,47.574,361.087,71.779C632.52,996.475,703.316,1011.973,774.431,1025.33z M773.595,1110.516
		c1.402-12.422,0.812-25.411,0-37.833c-0.541-8.241-2.632-17.637-3.124-26.444c-3.764-0.763-7.552-1.525-11.315-2.288
		c-7.97-1.599-15.94-3.198-23.91-4.821c-1.009,12.349-1.771,24.697-2.042,37.07c-0.295,13.628,1.304,27.674,1.648,41.277
		c7.109,0.984,14.243,1.968,21.352,2.878c4.305,0.541,13.751,1.181,14.513,0.713c1.673-1.082,0.492,0.713,1.156-1.722
		C772.66,1116.395,773.25,1113.517,773.595,1110.516z M776.399,677.133c-7.355-31.634-5.043-64.843-2.509-97.116
		c-9.323,1.722-18.671,3.37-28.067,4.821c-2.386,0.369-4.92,0.861-7.503,1.328c1.894,17.613,3.665,35.226,4.674,52.912
		c0.59,10.823,1.205,21.647,1.673,32.495c0.025,0.91,0.098,1.845,0.172,2.804C755.367,675.436,765.895,676.395,776.399,677.133z
		 M720.412,639.078c0.025-17.022,1.648-56.848,1.648-56.848s-149.93-20.368-181.023-23.639
		c-43.319-4.551-86.736-8.241-129.882-14.292c-34.365-4.821-68.926-7.257-103.34-11.66c-17.367-2.214-34.734-4.821-51.756-9.052
		c-8.634-2.165-28.658-8.314-28.658-8.314s-24.722,2.312-36.677,6.74s-14.095,9.249-14.095,9.249s77.905,12.127,96.895,13.8
		c27.379,2.411,98.1,10.159,104.717,12.053c6.789,1.943,4.674,10.774-1.55,11.488c-35.595,4.083-74.043-0.467-109.563-3.764
		c-0.049,0-0.074,0-0.123,0c0.172,12.668-1.747,25.73-2.73,38.104c-0.91,11.463-1.87,23.074-3.591,34.537
		c29.74,3.198,59.603,5.289,89.441,7.011c75.715,4.354,151.258,9.052,226.851,15.202c37.267,3.05,74.51,6.051,111.753,9.126
		c10.553,0.861,21.13,1.919,31.733,3.026c0-0.098,0-0.197,0-0.271C720.412,660.725,720.412,649.902,720.412,639.078z
		 M716.304,1035.317c-5.879-1.181-11.734-2.361-17.613-3.542c-3.419-0.689-6.838-1.378-10.258-2.066
		c-3.985,16.309-4.674,33.725-3.837,50.255c0.467,9.224,1.476,18.375,3.714,27.354c0.32,1.205,0.64,2.386,0.959,3.518
		c6.863,1.009,13.702,2.017,20.565,3.026c-1.23-12.718,0.517-26.764,1.279-37.661
		C711.999,1063.95,712.245,1048.354,716.304,1035.317z M703.242,444.157c-0.221-0.025-0.443-0.049-0.689-0.074
		c-11.684-1.181-23.369-2.411-35.078-3.641c-13.062,21.549-22.434,43.712-21.598,70.008c0.197,6.519,1.107,12.939,2.853,19.212
		c1.82,6.494,5.51,11.98,7.675,18.228c5.682,0.713,11.365,1.476,17.022,2.239c4.674,0.664,9.397,1.304,14.095,2.115
		c-4.944-16.875-4.821-36.726-3.321-50.797C686.17,483.343,691.853,461.007,703.242,444.157z M688.31,906.812
		c-6.519-1.181-13.013-2.361-19.531-3.518c-1.993,11.07-4.674,22.065-6.347,33.233c-1.328,8.659-2.681,17.859-1.992,26.665
		c0.098,1.181,0.246,2.288,0.418,3.37c4.821,1.132,9.643,2.238,14.464,3.321c-0.369-7.404,0.394-14.956,1.476-22.213
		C678.815,934.289,682.112,919.53,688.31,906.812z M665.581,1079.964c0.271-17.859,1.648-36.48,8.142-53.207
		c-111.753-22.508-223.53-44.991-335.209-67.77c-34.315-6.986-68.582-14.489-102.848-21.893c0.91,15.473-0.615,31.339-0.541,46.59
		c0.049,10.774,0.148,21.672,1.427,32.372c0.369,3.247,1.156,6.42,1.919,9.594c23.541,5.83,47.156,11.414,70.82,16.727
		c117.878,26.468,236.912,47.771,356.487,65.039C664.72,1097.232,665.483,1086.261,665.581,1079.964z M642.409,928.115
		c2.066-9.126,4.108-19.162,7.97-28.092c-28.461-5.018-56.971-9.889-85.506-14.71c-0.418,9.028-2.017,18.105-2.583,26.985
		c-0.713,10.971-0.517,21.278,1.599,31.733c13.923,3.026,27.821,6.101,41.695,9.323c10.627,2.484,21.229,5.067,31.806,7.626
		C637.489,949.836,640.121,938.25,642.409,928.115z M642.901,242.545c-5.977-14.095-9.003-30.872-10.233-39.58
		c-2.091-15.128-2.534-30.232-0.984-45.434c0.59-5.781,1.205-12.324,2.558-18.646c-2.46,0.025-4.944-0.025-7.453-0.221
		c-6.691-0.467-13.406-1.058-20.122-1.673c1.279,17.195-2.854,36.185-3.936,52.346c-0.763,10.922-1.402,22.262,0.049,33.135
		c0.886,6.691,4.157,11.93,6.716,17.465c3.616,0.271,7.232,0.566,10.848,0.812C627.846,241.315,635.349,241.93,642.901,242.545z
		 M622.312,488.779c2.78-17.145,9.249-36.087,20.073-50.993c-29.445-3.149-58.865-6.347-88.335-9.421
		c-39.703-4.182-79.577-7.355-119.304-11.561c-4.625,4.354-9.766,8.339-13.234,14.144c-6.174,10.282-10.086,21.672-12.89,33.307
		c-4.452,18.597-6.543,39.309,1.058,57.168c29.346,3.321,58.644,7.011,88.089,9.766c42.408,3.985,85.038,7.945,127.447,12.865
		c-1.451-4.944-2.435-9.84-3.124-13.751C619.704,516.429,620.073,502.653,622.312,488.779z M588.439,815.477
		c21.696-16.604,17.662-45.016,10.75-68.36c-4.034-13.677-9.938-26.69-16.998-39.063c-4.379-7.675-9.766-14.636-14.759-21.868
		c-10.086-0.836-20.171-1.673-30.281-2.509c14.12,19.728,24.427,43.663,30.478,65.63c4.403,16.063,6.396,33.233,2.534,49.616
		c-1.156,4.944-2.927,10.061-5.289,14.784c7.822,0.64,15.669,1.23,23.517,1.845C588.39,815.526,588.414,815.501,588.439,815.477z
		 M587.332,135.122c-6.888-0.713-13.751-1.402-20.589-2.091c-1.82-0.197-3.616-0.344-5.412-0.541
		c-4.994,17.588-7.257,37.243-7.773,54.855c-0.344,10.947,0.025,22.188,3.124,32.766c1.107,3.788,2.534,7.945,5.067,11.045
		c1.796,2.189,4.108,3.665,6.174,5.436c4.354,0.369,8.708,0.738,13.062,1.107c-3.173-13.087-2.558-28.485-1.82-38.448
		c1.033-13.775,3.026-27.502,5.141-41.154C585.487,150.594,586.151,142.772,587.332,135.122z M546.621,882.238
		c-8.437-1.402-16.875-2.804-25.312-4.231c-1.722,10.331-3.813,20.392-3.321,31.29c0.394,8.068,4.059,17.367,5.338,26.173
		c5.461,1.132,10.922,2.238,16.383,3.37c-0.541-8.905,0.221-18.006,1.304-26.542C542.292,902.286,543.792,892.053,546.621,882.238z
		 M545.735,787.803c2.017-13.775-1.033-27.895-5.092-41.006c-6.912-22.287-19.974-42.876-27.551-64.966
		c-35.988-2.681-72.025-4.772-108.038-6.986c-10.946,23.025-21.868,45.213-22.975,71.558c-0.959,22.68,9.298,53.158,14.095,58.988
		c44.795,4.034,95.493,2.091,140.312,5.928c0.64-1.87,1.427-3.764,2.558-5.658C542.39,800.053,544.776,794.297,545.735,787.803z
		 M531.296,166.928c1.747-11.463,4.452-25.066,10.159-36.357c-44.647-4.305-89.318-8.265-133.916-12.816
		c-18.179-1.845-36.382-3.616-54.585-5.19c0.295,15.3-2.263,31.044-1.082,46.27c1.501,19.335,5.535,39.186,20.983,52.076
		c24.5,3.37,48.878,7.847,73.305,11.611c29.248,4.502,58.816,8.019,88.408,10.971C526.376,212.608,527.975,188.649,531.296,166.928z
		 M497.595,930.255c-0.935-6.691-0.935-13.579-1.009-19.212c-0.172-10.946,0-24.919,4.059-36.48
		c-25.952-4.354-51.904-8.683-77.855-13.111c-1.673,12.324-3.124,24.378-2.189,37.218c0.271,3.419,1.747,10.258,2.214,16.924
		C447.758,920.416,472.677,925.262,497.595,930.255z M404.784,418.254c0.886-1.378,1.894-2.903,3.001-4.477
		c-13.087-1.574-26.173-3.247-39.235-4.92c-13.234,11.365-19.04,31.634-22.114,47.845c-3.936,20.712-2.73,42.039,9.225,59.382
		c9.495,0.812,18.99,1.623,28.485,2.583c0.812,0.098,1.648,0.172,2.46,0.271c-5.363-18.818-2.066-42.507,1.55-58.84
		C391.402,445.584,396.765,430.849,404.784,418.254z M399.028,885.584c0.443-8.88,1.107-18.671,3.788-27.551
		c-25.484-4.379-50.92-8.831-76.33-13.505c-1.501,17.096-3.272,33.922-2.534,51.19c9.298,2.091,18.597,4.108,27.871,5.977
		c15.694,3.124,31.388,6.199,47.082,9.249C397.945,901.401,398.757,891.118,399.028,885.584z M384.736,673.566
		c-7.724-0.492-15.423-1.009-23.148-1.55c-7.232,10.282-18.744,18.867-25.042,29.15c-6.494,10.627-7.33,22.975-8.044,35.127
		c-0.713,11.955-0.369,24.55,4.305,35.791c2.312,5.584,15.719,25.534,18.621,28.362c0.172,0.172,0.32,0.344,0.467,0.517
		c5.338,0.467,15.915,2.189,21.253,2.657c-0.172-0.344-13.431-37.046-14.046-51.953
		C357.874,722.592,367.984,696.148,384.736,673.566z M334.653,670.122c0.025-0.025,0.049-0.025,0.074-0.049
		c-15.94-1.23-31.856-2.534-47.746-4.083c-20.466-2.017-40.883-4.452-61.227-7.453c-7.97-1.181-16.334-2.115-24.574-3.444
		c-1.255,5.117-2.46,10.258-3.05,15.497c-1.574,14.021-1.205,28.338-0.443,42.384c1.328,23.984,4.649,47.992,10.307,71.386
		c18.843,5.264,95.69,12.964,111.138,13.948c-1.574-2.534-6.839-11.537-8.068-14.243c-6.469-14.317-7.896-30.109-6.715-45.656
		c1.205-15.645,2.903-32.102,10.897-45.852C320.287,683.873,327.175,676.739,334.653,670.122z M339.991,207.295
		c-6.174-12.472-8.979-26.788-9.864-40.637c-1.082-16.334-0.517-38.202,5.313-55.544c-12.201-0.959-24.427-1.771-36.652-2.46
		c-2.583,15.743-5.559,30.626-4.649,47.156c0.886,16.53,4.256,33.75,11.783,48.681C317.261,205.696,328.7,206.384,339.991,207.295z
		 M326.904,455.792c2.238-14.833,7.257-34.98,17.022-49.985c-21.942-2.607-43.909-4.871-66.023-6.027
		c-16.506-0.861-35.201-1.009-53.404-3.247c-15.448,20.269-17.342,48.681-9.938,72.813c3.345,10.946,8.61,22.606,19.876,26.518
		c16.678,5.756,33.7,9.741,51.116,12.57c15.497,2.509,31.093,4.182,46.713,5.609C324.1,496.405,324.173,474.02,326.904,455.792z
		 M304.79,862.116c0.836-6.371,1.451-13.972,3.247-21.007c-9.102-1.722-18.179-3.444-27.256-5.215
		c-12.742-2.509-25.583-5.018-38.35-7.749c-0.172,8.88-1.82,17.933-2.435,26.567c-0.492,7.208,0.935,15.891,0.098,23.59
		c20.712,3.296,41.326,7.822,61.866,12.472C302.059,881.131,303.584,871.242,304.79,862.116z M282.036,200.801
		c-4.551-13.874-6.47-28.584-7.035-43.196c-0.566-15.03-0.418-34.119,4.674-49.862c-9.077-0.369-18.154-0.64-27.256-0.763
		c-4.846,14.144-2.411,33.085-1.033,46.935c0.959,9.692,2.484,19.408,5.043,28.83c0.492,1.845,2.042,8.339,3.665,11.857
		c0.713,0.074,1.427,0.221,2.189,0.492C268.728,197.529,275.345,199.374,282.036,200.801z M247.154,599.154
		c1.673-11.094,2.484-24.205,6.051-35.693c-10.774-1.132-21.499-2.46-32.2-4.059c-0.369,24.476,2.116,49.001,1.722,73.501
		c5.24,0.664,10.43,1.304,15.596,1.968c1.55,0.197,3.124,0.369,4.674,0.566C243.612,623.261,245.359,611.06,247.154,599.154z
		 M220.735,856.975c1.107-10.528,1.697-22.041,3.837-32.839c-6.051-1.427-12.053-2.976-18.056-4.625
		c0.074,3.37-6.765,14.341-6.937,25.017c-0.148,10.061,6.937,22.852,6.937,22.852l12.964,5.904
		C219.481,873.284,220.391,860.271,220.735,856.975z M214.881,932.641c-10.479-2.238-20.983-4.452-31.487-6.666
		c-4.059,27.674-3.641,56.085-6.248,83.956c9.84,2.607,19.679,5.19,29.543,7.724c1.697,0.443,3.37,0.836,5.067,1.279
		c-0.861-10.897,0.025-22.287,0.123-29.223C212.15,970.942,212.273,951.41,214.881,932.641z M205.681,592.956
		c0.664-10.799,0.836-23.935,3.936-35.299c-11.807-1.796-24.968-3.419-36.677-7.355c0.787,9.963,3.198,19.876,4.379,29.691
		c1.476,12.152-0.615,24.427,0.689,36.48c0.787,7.404,4.329,8.659,11.611,10.553c5.19,1.328,10.455,2.386,15.792,3.321
		C204.918,617.874,204.894,605.427,205.681,592.956z M200.023,321.999c0.713-16.235,3.198-34.734,9.471-50.575
		c-10.848-2.165-21.647-4.649-32.372-7.527c-2.165,33.356-5.781,71.681,8.044,100.167c7.134,2.165,14.292,3.911,21.45,5.313
		C201.794,354.125,199.334,338.456,200.023,321.999z M155.278,1004.101c3.518-27.551,5.559-54.486,14.12-81.029
		c-15.128-3.099-30.281-6.076-45.434-8.954c1.23,13.357,0.467,27.034-0.123,40.318c-0.59,13.529-1.402,27.108-3.05,40.564
		c3.591,1.107,8.364,1.845,11.783,2.804C140.125,999.919,147.701,1002.01,155.278,1004.101z"/>
	<path fill="#D36448" d="M1058.573,376.707c4.034,0.886,2.435,3.69-0.418,4.01c-0.959-0.074-1.919,0.049-2.854,0.344
		c-10.996,1.255-21.967,2.484-32.938,3.788c-16.899,1.993-33.577,6.273-50.305,10.012c12.742-9.913,25.484-19.777,38.202-29.715
		C1026.446,368.663,1042.46,373.091,1058.573,376.707z"/>
	<path fill="#8CC8BE" d="M1033.777,790.632c0.221,3.222-75.642,38.128-97.264,48.78c-26.788,13.185-53.822,26.026-80.143,40.096
		c-19.851,10.627-41.621,19.531-60.341,32.2c-25.288-9.028-52.691-13.554-78.839-18.867c-43.245-8.782-86.686-16.555-130.128-24.304
		c-80.832-14.44-192.88-31.733-273.539-47.205c-14.095-2.706-3.985-5.879,11.881-4.748c28.977,2.091,88.949,8.044,117.829,10.701
		c90.253,8.241,180.629,15.325,271.153,19.581c44.942,2.115,92.418,10.43,137.139,3.788c19.433-0.517,38.596-9.323,55.716-17.81
		c19.9-9.864,38.473-22.188,57.192-34.094c7.773-4.944,15.915-9.446,24.156-13.874
		C1008.981,785.909,1033.186,781.776,1033.777,790.632z"/>
	<path fill="#FAF6ED" d="M1015.328,943.17c0.64,9.913,0.221,19.925,0.615,29.814c-35.767,21.721-73.821,39.334-109.342,61.817
		c-23.271,14.735-45.36,31.216-67.696,47.304c-11.438,8.192-23.787,15.694-35.841,23.517c0.369-9.348-0.271-18.572-0.64-25.976
		c-0.123-2.878-0.344-5.732-0.566-8.585c8.757-5.805,16.875-12.472,24.943-19.335c11.119-9.446,23.516-18.129,33.848-28.362
		c4.477-4.428-0.295-10.307-5.584-9.594c-13.283,1.845-25.091,11.365-35.299,19.531c-6.691,5.363-13.087,11.094-19.605,16.703
		c-0.074-2.681,2.46-17.711,4.403-22.36l4.797-17.219c45.262-29.396,94.976-50.6,142.673-75.617
		c19.015-9.963,38.374-19.286,57.512-29.027c1.451,6.076,2.632,12.226,3.567,18.425c-21.253,7.33-41.621,19.31-60.735,30.503
		c-20.884,12.201-46.369,25.78-61.497,45.188c-3.887,4.969,0.763,11.119,6.617,8.585c22.459-9.717,42.876-25.78,64.228-37.759
		C979.217,960.881,997.641,952.616,1015.328,943.17z"/>
	<path fill="#FAC950" d="M960.128,247.071c-11.561,7.134-23.172,14.267-34.611,21.622c-22.311,14.317-48.042,29.002-66.712,48.484
		c-19.605-7.749-44.426-6.592-65.212-7.699c-22.926-1.205-45.877-2.116-68.729-4.059c-46.762-4.01-93.377-9.889-139.992-15.251
		c-46.639-5.363-93.279-10.873-139.992-15.522c-42.654-4.231-85.456-6.42-128.209-9.717c-43.466-3.345-87.055-8.068-129.513-18.105
		c12.349-8.191,32.077-11.586,43.269-14.341c15.792-3.911,32.495-6.076,48.189-10.774c15.792,4.477,32.323,6.051,48.903,7.478
		c29.888,2.534,59.283,7.306,88.851,12.299c61.842,10.455,124.913,18.498,187.468,23.074c28.609,2.116,57.266,5.559,85.924,6.519
		c58.029,1.943,115.664-9.003,173.201-14.71C895.334,253.147,927.731,250.047,960.128,247.071z"/>
	<path fill="#8CC8BE" d="M974.149,89.269c0,0-205.671,10.774-260.158,16.112c-12.472,1.23-24.919,2.78-37.267,4.871
		c-11.389,1.894-22.68,5.732-34.192,6.445c-20.368,1.23-41.4-2.435-61.694-4.206c-49.813-4.329-99.65-8.167-149.438-12.865
		c-12.718-1.205-59.701-2.14-72.419-3.272c-2.288-0.197-0.32-5.092,19.482-7.675c32.052-4.182,143.461-21.844,143.461-21.844
		S973.928,73.846,974.149,89.269z"/>
	<path fill="#FAC950" d="M850.933,693.098c-0.246,1.796-0.467,3.567-0.689,5.313c-1.55,12.324-2.214,24.771-2.927,37.169
		c-1.574,27.452-2.115,55.052-5.486,82.357c-0.541,4.231-1.992,9.249-2.607,14.144c-16.358-0.566-32.692-0.836-49.05-2.337
		c-19.039-1.722-38.03-3.96-57.143-5.067c-36.997-2.165-73.993-4.182-110.99-6.691c11.611-20.442,9.938-49.124,3.862-70.771
		c-4.895-17.49-12.644-34.734-22.582-49.936c-1.845-2.829-3.813-5.732-5.904-8.61c23.148,1.919,46.295,3.837,69.443,5.756
		c41.72,3.468,83.562,8.413,125.331,10.946c11.734,0.713,28.043,3.321,39.555-0.664
		C837.207,702.789,848.252,693.688,850.933,693.098z M834.329,798.774c1.82-23.443,2.091-50.526-3.493-73.477
		c-1.87-7.699-13.8-7.749-15.645,0c-4.723,19.802-4.305,41.941-4.28,62.801c-18.474,1.205-37.366,0.418-55.741,0.172
		c-10.651-0.123-21.303-0.32-31.954-0.467c-9.471-0.123-18.892-2.165-25.976,5.166c-3.345,3.468-3.345,8.979,0,12.447
		c7.035,7.306,16.555,5.338,25.976,5.412c10.651,0.098,21.303,0.246,31.954,0.344c22.459,0.172,44.991-1.058,67.425-0.664
		C829.311,810.631,833.862,805.022,834.329,798.774z"/>
	<path fill="#FAC950" d="M850.22,335.701c1.501,29.715-4.575,60.415-0.861,89.983c-11.192-0.074-22.41-0.148-33.602-0.271
		c-2.115-10.455-6.765-21.868-7.872-25.976c-3.222-12.053-5.609-24.377-5.805-36.898c-0.148-10.258,1.747-19.974,3.788-29.814
		c4.551,0.295,9.126,0.59,13.677,0.935C829.901,334.422,839.987,335.848,850.22,335.701z"/>
	<path fill="#280412" d="M830.836,725.297c5.584,22.951,5.313,50.034,3.493,73.477c-0.467,6.248-5.018,11.857-11.734,11.734
		c-22.434-0.394-44.967,0.836-67.425,0.664c-10.651-0.098-21.303-0.246-31.954-0.344c-9.421-0.074-18.941,1.894-25.976-5.412
		c-3.345-3.468-3.345-8.979,0-12.447c7.084-7.33,16.506-5.289,25.976-5.166c10.651,0.148,21.303,0.344,31.954,0.467
		c18.375,0.246,37.267,1.033,55.741-0.172c-0.025-20.86-0.443-42.999,4.28-62.801C817.036,717.549,828.967,717.598,830.836,725.297z
		"/>
	<path fill="#08736D" d="M823.284,648.401c0.074,3.247-0.689,22.877-2.435,30.33c-6.273-0.984-13.308-0.172-19.654-0.32
		c-0.443-0.025-0.886-0.049-1.328-0.074c-0.148-0.861-0.32-1.697-0.59-2.46c0.098-0.025,0.172-0.049,0.271-0.074
		c-9.741-31.413-7.822-65.9-9.2-98.789c9.79-1.796,19.63-3.567,29.445-5.313C817.061,597.113,822.546,622.646,823.284,648.401z"/>
	<path fill="#8CC8BE" d="M789.805,927.574c-0.074,13.775-0.467,27.526-0.861,41.277c-0.246,8.56-0.91,17.391-0.886,26.173
		c-25.337-8.954-52.273-13.333-78.643-18.154c-3.321-0.59-6.617-1.255-9.913-1.894c-0.098-2.115-0.344-4.354-0.517-6.789
		c-0.59-7.453-0.123-15.03,0.541-22.483c1.033-12.029,3.641-23.91,7.06-35.496C734.458,915.422,762.205,921.104,789.805,927.574z"/>
	<path fill="#FAC950" d="M788.305,418.328c0.615,1.992,1.181,4.28,1.845,6.642c-22.188-0.492-44.352-1.402-66.491-3.198
		c-47.697-3.887-95.271-9.692-142.846-14.686c-48.46-5.117-96.993-9.397-145.502-14.169c-44.819-4.379-89.368-12.595-134.334-15.399
		c-22.459-1.402-44.647-1.845-66.614-4.083c-7.626-17.613-10.848-36.382-10.061-55.52c0.566-14.39,4.403-28.461,6.076-42.679
		c63.317,10.455,128.209,11.906,192.019,17.588c93.845,8.339,187.148,21.942,280.771,32.249c26.173,2.878,52.346,4.649,78.618,6.174
		c0.492,0.025,0.984,0.049,1.451,0.074c-5.584,16.186-5.166,34.684-2.927,51.264C781.934,394.713,784.713,406.619,788.305,418.328z
		 M731.162,380.889c3.985-1.009,4.133-7.281,0-8.216c-9.667-2.165-18.179-4.083-28.215-4.305
		c-10.627-0.221-21.155-1.525-31.757-1.993c-10.061-0.467-19.359-2.214-29.273-3.936c-7.995-1.402-59.775-7.798-81.57-10.332
		c-23.049-2.681-45.951-6.396-69-9.151c-15.522-1.845-31.241-1.107-46.812-2.165c-14.144-0.984-30.601-2.558-40.195-14.169
		c-5.313-6.445-14.759-3.272-18.794,2.411c-11.906,16.776-30.503,9.077-40.76-5.215c-4.477-6.199-16.014-8.659-19.876,0
		c-3.764,8.437-10.11,15.128-19.876,10.823c-8.191-3.591-10.676-12.816-7.306-20.737c3.026-7.134-4.698-14.071-10.996-8.487
		c-16.383,14.464-12.004,37.095,6.297,47.746c14.956,8.683,31.683,5.486,42.925-5.313c17.883,15.792,41.547,19.064,60.169,3.985
		c22.779,16.801,58.717,13.136,84.964,14.686c21.303,1.279,42.482,6.125,63.711,8.56c24.746,2.829,50.132-0.836,74.535,3.37
		C628.486,392.696,710.203,386.251,731.162,380.889z"/>
	<path fill="#08736D" d="M782.868,1012.612c0,0-7.257,10.233-8.437,12.718c-71.115-13.357-141.911-28.854-212.854-43.122
		c-120.288-24.205-240.651-48.214-361.087-71.779c-14.144-2.78-42.556-8.29-42.556-8.29l64.277-10.381
		c0,0,70.353,20.097,105.652,27.969c41.301,9.2,82.751,17.588,124.2,26.099c41.572,8.511,83.095,17.195,124.446,26.616
		C612.743,980.707,782.868,1012.612,782.868,1012.612z"/>
	<path fill="#08736D" d="M773.595,1072.683c0.812,12.422,1.402,25.411,0,37.833c-0.344,3.001-0.935,5.879-1.722,8.831
		c-0.664,2.435,0.517,0.64-1.156,1.722c-0.763,0.467-10.209-0.172-14.513-0.713c-7.109-0.91-14.243-1.894-21.352-2.878
		c-0.344-13.603-1.943-27.649-1.648-41.277c0.271-12.373,1.033-24.722,2.042-37.07c7.97,1.624,15.94,3.222,23.91,4.821
		c3.764,0.763,7.552,1.525,11.315,2.288C770.963,1055.045,773.053,1064.442,773.595,1072.683z"/>
	<path fill="#08736D" d="M773.89,580.017c-2.534,32.274-4.846,65.482,2.509,97.116c-10.504-0.738-21.032-1.697-31.56-2.755
		c-0.074-0.959-0.148-1.894-0.172-2.804c-0.467-10.848-1.082-21.672-1.673-32.495c-1.009-17.687-2.78-35.299-4.674-52.912
		c2.583-0.467,5.117-0.959,7.503-1.328C755.219,583.387,764.567,581.739,773.89,580.017z"/>
	<path fill="#280412" d="M731.162,372.673c4.133,0.935,3.985,7.207,0,8.216c-20.958,5.363-102.676,11.807-111.826-2.435
		c-24.402-4.206-49.788-0.541-74.535-3.37c-21.229-2.435-42.408-7.281-63.711-8.56c-26.247-1.55-62.186,2.116-84.964-14.686
		c-18.621,15.079-42.285,11.807-60.169-3.985c-11.242,10.799-27.969,13.997-42.925,5.313c-18.302-10.651-22.68-33.282-6.297-47.746
		c6.297-5.584,14.021,1.353,10.996,8.487c-3.37,7.921-0.886,17.145,7.306,20.737c9.766,4.305,16.112-2.386,19.876-10.823
		c3.862-8.659,15.399-6.199,19.876,0c10.258,14.292,28.854,21.991,40.76,5.215c4.034-5.682,13.48-8.856,18.794-2.411
		c9.594,11.611,26.05,13.185,40.195,14.169c15.571,1.058,31.29,0.32,46.812,2.165c23.049,2.755,45.951,6.469,69,9.151
		c21.795,2.534,73.575,8.929,81.57,10.332c9.913,1.722,19.212,3.468,29.273,3.936c10.602,0.467,21.13,1.771,31.757,1.993
		C712.983,368.589,721.494,370.508,731.162,372.673z"/>
	<path fill="#08736D" d="M722.06,582.23c0,0-1.624,39.826-1.648,56.848c0,10.823,0,21.647,0.049,32.495c0,0.074,0,0.172,0,0.271
		c-10.602-1.107-21.18-2.165-31.733-3.026c-37.243-3.075-74.485-6.076-111.753-9.126c-75.592-6.15-151.135-10.848-226.851-15.202
		c-29.838-1.722-59.701-3.813-89.441-7.011c1.722-11.463,2.681-23.074,3.591-34.537c0.984-12.373,2.903-25.435,2.73-38.104
		c0.049,0,0.074,0,0.123,0c35.521,3.296,73.969,7.847,109.563,3.764c6.224-0.713,8.339-9.544,1.55-11.488
		c-6.617-1.894-77.339-9.643-104.717-12.053c-18.99-1.673-96.895-13.8-96.895-13.8s2.14-4.821,14.095-9.249s36.677-6.74,36.677-6.74
		s20.023,6.15,28.658,8.314c17.022,4.231,34.389,6.839,51.756,9.052c34.414,4.403,68.975,6.839,103.34,11.66
		c43.146,6.051,86.563,9.741,129.882,14.292C572.13,561.863,722.06,582.23,722.06,582.23z M614.637,589.487
		c5.313-1.255,5.559-9.889,0-10.971c-31.56-6.224-65.482-5.486-97.559-8.241c-16.506-1.427-33.036-3.026-49.591-4.059
		c-11.906-0.738-30.011-4.403-40.588,2.165c-3.788,2.337-3.665,7.601,0,9.987c10.356,6.715,28.584,4.452,40.588,5.363
		c16.555,1.255,33.061,2.706,49.591,4.182C548.343,590.693,583.667,596.719,614.637,589.487z"/>
	<path fill="#8CC8BE" d="M698.691,1031.775c5.879,1.181,11.734,2.361,17.613,3.542c-4.059,13.037-4.305,28.633-5.19,40.883
		c-0.763,10.897-2.509,24.943-1.279,37.661c-6.863-1.009-13.702-2.017-20.565-3.026c-0.32-1.132-0.64-2.312-0.959-3.518
		c-2.239-8.979-3.247-18.129-3.714-27.354c-0.836-16.531-0.148-33.946,3.837-50.255
		C691.853,1030.397,695.272,1031.086,698.691,1031.775z"/>
	<path fill="#FAC950" d="M702.553,444.083c0.246,0.025,0.467,0.049,0.689,0.074c-11.389,16.85-17.072,39.186-19.039,57.291
		c-1.501,14.071-1.624,33.922,3.321,50.797c-4.698-0.812-9.421-1.451-14.095-2.115c-5.658-0.763-11.34-1.525-17.022-2.239
		c-2.165-6.248-5.855-11.734-7.675-18.228c-1.747-6.273-2.657-12.693-2.853-19.212c-0.836-26.296,8.536-48.46,21.598-70.008
		C679.184,441.673,690.869,442.903,702.553,444.083z"/>
	<path fill="#FAC950" d="M668.779,903.295c6.519,1.156,13.013,2.337,19.531,3.518c-6.199,12.718-9.495,27.477-11.512,40.859
		c-1.082,7.257-1.845,14.809-1.476,22.213c-4.821-1.082-9.643-2.189-14.464-3.321c-0.172-1.082-0.32-2.189-0.418-3.37
		c-0.689-8.806,0.664-18.006,1.992-26.665C664.105,925.36,666.786,914.364,668.779,903.295z"/>
	<path fill="#08736D" d="M673.723,1026.756c-6.494,16.727-7.872,35.349-8.142,53.207c-0.098,6.297-0.861,17.268,0.197,27.452
		c-119.575-17.268-238.609-38.571-356.487-65.039c-23.664-5.313-47.279-10.897-70.82-16.727c-0.763-3.173-1.55-6.346-1.919-9.594
		c-1.279-10.701-1.378-21.598-1.427-32.372c-0.074-15.251,1.451-31.118,0.541-46.59c34.266,7.404,68.532,14.907,102.848,21.893
		C450.193,981.765,561.971,1004.249,673.723,1026.756z"/>
	<path fill="#8CC8BE" d="M650.379,900.023c-3.862,8.929-5.904,18.966-7.97,28.092c-2.288,10.135-4.92,21.721-5.018,32.864
		c-10.578-2.558-21.18-5.141-31.806-7.626c-13.874-3.222-27.772-6.297-41.695-9.323c-2.115-10.455-2.312-20.761-1.599-31.733
		c0.566-8.88,2.165-17.957,2.583-26.985C593.408,890.134,621.918,895.005,650.379,900.023z"/>
	<path fill="#8CC8BE" d="M632.668,202.965c1.23,8.708,4.256,25.484,10.233,39.58c-7.552-0.615-15.055-1.23-22.557-1.796
		c-3.616-0.246-7.232-0.541-10.848-0.812c-2.558-5.535-5.83-10.774-6.716-17.465c-1.451-10.873-0.812-22.213-0.049-33.135
		c1.082-16.161,5.215-35.152,3.936-52.346c6.715,0.615,13.431,1.205,20.122,1.673c2.509,0.197,4.994,0.246,7.453,0.221
		c-1.353,6.322-1.968,12.865-2.558,18.646C630.134,172.733,630.577,187.837,632.668,202.965z"/>
	<path fill="#D36448" d="M642.384,437.786c-10.823,14.907-17.293,33.848-20.073,50.993c-2.238,13.874-2.607,27.649-0.221,41.523
		c0.689,3.911,1.673,8.806,3.124,13.751c-42.408-4.92-85.038-8.88-127.447-12.865c-29.445-2.755-58.742-6.445-88.089-9.766
		c-7.601-17.859-5.51-38.571-1.058-57.168c2.804-11.635,6.716-23.025,12.89-33.307c3.468-5.805,8.61-9.79,13.234-14.144
		c39.727,4.206,79.602,7.38,119.304,11.561C583.519,431.439,612.94,434.637,642.384,437.786z"/>
	<path fill="#280412" d="M614.637,578.516c5.559,1.082,5.313,9.717,0,10.971c-30.97,7.232-66.294,1.205-97.559-1.574
		c-16.53-1.476-33.036-2.927-49.591-4.182c-12.004-0.91-30.232,1.353-40.588-5.363c-3.665-2.386-3.788-7.65,0-9.987
		c10.577-6.568,28.682-2.903,40.588-2.165c16.555,1.033,33.085,2.632,49.591,4.059C549.155,573.031,583.076,572.293,614.637,578.516
		z"/>
	<path fill="#D36448" d="M599.189,747.117c6.912,23.344,10.946,51.756-10.75,68.36c-0.025,0.025-0.049,0.049-0.049,0.074
		c-7.847-0.615-15.694-1.205-23.517-1.845c2.362-4.723,4.133-9.84,5.289-14.784c3.862-16.383,1.87-33.553-2.534-49.616
		c-6.051-21.967-16.358-45.901-30.478-65.63c10.11,0.836,20.196,1.673,30.281,2.509c4.994,7.232,10.381,14.194,14.759,21.868
		C589.251,720.427,595.155,733.44,599.189,747.117z"/>
	<path fill="#08736D" d="M566.743,133.031c6.838,0.689,13.702,1.378,20.589,2.091c-1.181,7.65-1.845,15.473-3.026,22.975
		c-2.115,13.652-4.108,27.379-5.141,41.154c-0.738,9.963-1.353,25.361,1.82,38.448c-4.354-0.369-8.708-0.738-13.062-1.107
		c-2.066-1.771-4.379-3.247-6.174-5.436c-2.534-3.099-3.96-7.257-5.067-11.045c-3.099-10.578-3.468-21.819-3.124-32.766
		c0.517-17.613,2.78-37.267,7.773-54.855C563.127,132.686,564.922,132.834,566.743,133.031z"/>
	<path fill="#FAC950" d="M521.309,878.007c8.437,1.427,16.875,2.829,25.312,4.231c-2.829,9.815-4.329,20.048-5.609,30.06
		c-1.082,8.536-1.845,17.637-1.304,26.542c-5.461-1.132-10.922-2.238-16.383-3.37c-1.279-8.806-4.944-18.105-5.338-26.173
		C517.496,898.4,519.587,888.339,521.309,878.007z"/>
	<path fill="#FAC950" d="M540.643,746.797c4.059,13.111,7.109,27.231,5.092,41.006c-0.959,6.494-3.345,12.25-6.691,17.859
		c-1.132,1.894-1.919,3.788-2.558,5.658c-44.819-3.837-95.517-1.894-140.312-5.928c-4.797-5.83-15.055-36.308-14.095-58.988
		c1.107-26.345,12.029-48.534,22.975-71.558c36.013,2.214,72.05,4.305,108.038,6.986
		C520.669,703.921,533.731,724.51,540.643,746.797z"/>
	<path fill="#8CC8BE" d="M541.455,130.571c-5.707,11.291-8.413,24.894-10.159,36.357c-3.321,21.721-4.92,45.68,3.272,66.565
		c-29.592-2.952-59.16-6.47-88.408-10.971c-24.427-3.764-48.804-8.241-73.305-11.611c-15.448-12.89-19.482-32.741-20.983-52.076
		c-1.181-15.227,1.378-30.97,1.082-46.27c18.203,1.574,36.406,3.345,54.585,5.19C452.137,122.306,496.808,126.266,541.455,130.571z
		 M488.863,198.291c7.134,2.583,11.119-5.879,8.757-11.389c-3.395-7.921-9.815-13.874-13.111-21.991
		c-2.78-6.814-10.553-9.741-16.383-4.329c-2.878,2.657-5.51,5.289-7.872,8.044c-4.083-5.559-8.954-10.43-14.882-14.661
		c-2.509-1.796-7.33-1.894-9.84,0c-4.748,3.591-8.708,7.699-12.201,12.152c-1.796-4.772-4.133-9.348-7.503-13.775
		c-2.509-3.272-7.281-5.781-11.266-2.952c-12.127,8.634-19.704,23.738-18.843,38.768c0.467,7.822,11.02,9.298,13.579,1.845
		c2.263-6.642,3.567-13.825,7.183-19.654c2.238,6.346,3.026,12.964,3.936,20.245c1.033,8.462,12.595,13.8,17.49,4.748
		c3.764-6.961,7.355-14.267,12.718-20.097c4.674,4.846,7.896,10.75,10.651,17.096c3.764,8.659,15.153,4.452,17.859-2.337
		c0.861-2.14,2.042-4.034,3.37-5.83C476.44,190.395,481.532,195.635,488.863,198.291z"/>
	<path fill="#280412" d="M497.62,186.902c2.361,5.51-1.624,13.972-8.757,11.389c-7.33-2.657-12.422-7.896-16.358-14.12
		c-1.328,1.796-2.509,3.69-3.37,5.83c-2.706,6.789-14.095,10.996-17.859,2.337c-2.755-6.347-5.978-12.25-10.651-17.096
		c-5.363,5.83-8.954,13.136-12.718,20.097c-4.895,9.052-16.457,3.714-17.49-4.748c-0.91-7.281-1.697-13.898-3.936-20.245
		c-3.616,5.83-4.92,13.013-7.183,19.654c-2.558,7.453-13.111,5.978-13.579-1.845c-0.861-15.03,6.715-30.134,18.843-38.768
		c3.985-2.829,8.757-0.32,11.266,2.952c3.37,4.428,5.707,9.003,7.503,13.775c3.493-4.452,7.453-8.56,12.201-12.152
		c2.509-1.894,7.33-1.796,9.84,0c5.928,4.231,10.799,9.102,14.882,14.661c2.361-2.755,4.994-5.387,7.872-8.044
		c5.83-5.412,13.603-2.484,16.383,4.329C487.805,173.028,494.225,178.981,497.62,186.902z"/>
	<path fill="#8CC8BE" d="M496.587,911.043c0.074,5.633,0.074,12.521,1.009,19.212c-24.919-4.994-49.837-9.84-74.781-14.661
		c-0.467-6.666-1.943-13.505-2.214-16.924c-0.935-12.841,0.517-24.894,2.189-37.218c25.952,4.428,51.904,8.757,77.855,13.111
		C496.587,886.125,496.415,900.097,496.587,911.043z"/>
	<path fill="#FAC950" d="M407.785,413.777c-1.107,1.574-2.116,3.099-3.001,4.477c-8.019,12.595-13.382,27.329-16.629,41.843
		c-3.616,16.334-6.912,40.022-1.55,58.84c-0.812-0.098-1.648-0.172-2.46-0.271c-9.495-0.959-18.99-1.771-28.485-2.583
		c-11.955-17.342-13.16-38.669-9.225-59.382c3.075-16.211,8.88-36.48,22.114-47.845C381.612,410.53,394.698,412.203,407.785,413.777
		z"/>
	<path fill="#FAC950" d="M402.816,858.033c-2.681,8.88-3.345,18.671-3.788,27.551c-0.271,5.535-1.082,15.817-0.123,25.361
		c-15.694-3.05-31.388-6.125-47.082-9.249c-9.274-1.87-18.572-3.887-27.871-5.977c-0.738-17.268,1.033-34.094,2.534-51.19
		C351.896,849.202,377.332,853.654,402.816,858.033z"/>
	<path fill="#D36448" d="M361.588,672.016c7.724,0.541,15.423,1.058,23.148,1.55c-16.752,22.582-26.862,49.026-25.632,78.101
		c0.615,14.907,13.874,51.608,14.046,51.953c-5.338-0.467-15.915-2.189-21.253-2.657c-0.148-0.172-0.295-0.344-0.467-0.517
		c-2.903-2.829-16.309-22.779-18.621-28.362c-4.674-11.242-5.018-23.836-4.305-35.791c0.713-12.152,1.55-24.5,8.044-35.127
		C342.844,690.884,354.356,682.299,361.588,672.016z"/>
	<path fill="#FAC950" d="M334.726,670.073c-0.025,0.025-0.049,0.025-0.074,0.049c-7.478,6.617-14.366,13.751-19.409,22.434
		c-7.995,13.751-9.692,30.207-10.897,45.852c-1.181,15.547,0.246,31.339,6.715,45.656c1.23,2.706,6.494,11.709,8.068,14.243
		c-15.448-0.984-92.295-8.683-111.138-13.948c-5.658-23.393-8.979-47.402-10.307-71.386c-0.763-14.046-1.132-28.362,0.443-42.384
		c0.59-5.24,1.796-10.381,3.05-15.497c8.241,1.328,16.604,2.263,24.574,3.444c20.343,3.001,40.76,5.436,61.227,7.453
		C302.871,667.539,318.786,668.843,334.726,670.073z M283.389,710.735c13.825,4.379,19.802-17.441,5.978-21.696
		c-17.121-5.24-35.718-4.6-53.207-8.29c-5.978-1.255-13.037,2.804-12.668,9.667c0.935,16.407-2.878,32.495-3.739,48.829
		c-0.541,10.528-1.574,31.511,11.709,34.512c2.927,0.664,5.978-0.443,7.552-3.075c3.296-5.51,1.304-9.077,0.32-14.956
		c-1.23-7.207-0.64-14.735,0.049-21.991c1.009-10.405,2.829-20.737,3.69-31.142C256.576,705.028,270.228,706.553,283.389,710.735z"
		/>
	<path fill="#08736D" d="M330.126,166.657c0.886,13.849,3.69,28.166,9.864,40.637c-11.291-0.91-22.729-1.599-34.069-2.804
		c-7.527-14.932-10.897-32.151-11.783-48.681c-0.91-16.53,2.066-31.413,4.649-47.156c12.226,0.689,24.451,1.501,36.652,2.46
		C329.61,128.455,329.044,150.324,330.126,166.657z"/>
	<path fill="#D36448" d="M343.926,405.807c-9.766,15.005-14.784,35.152-17.022,49.985c-2.73,18.228-2.804,40.613,5.363,58.25
		c-15.62-1.427-31.216-3.099-46.713-5.609c-17.416-2.829-34.438-6.814-51.116-12.57c-11.266-3.911-16.53-15.571-19.876-26.518
		c-7.404-24.132-5.51-52.543,9.938-72.813c18.203,2.238,36.898,2.386,53.404,3.247C300.017,400.937,321.984,403.2,343.926,405.807z
		 M314.383,455.866c7.478-12.545,4.92-29.002-5.117-39.383c-6.322-6.519-14.809-10.233-23.689-11.488
		c-8.068-1.132-51.018-5.018-50.846,33.282c0.098,16.678,19.531,28.362,35.004,32.077
		C285.799,474.192,305.282,471.142,314.383,455.866z"/>
	<path fill="#280412" d="M309.267,416.483c10.036,10.381,12.595,26.837,5.117,39.383c-9.102,15.276-28.584,18.326-44.647,14.489
		c-15.473-3.714-34.906-15.399-35.004-32.077c-0.172-38.3,42.777-34.414,50.846-33.282
		C294.458,406.25,302.945,409.965,309.267,416.483z M295.147,449.741c6.912-5.682,5.289-15.891-1.082-21.327
		c-5.117-4.379-11.069-4.28-17.318-5.166c-4.206-0.615-25.632,1.673-26.616,8.487c-0.738,5.043,3.665,10.135,7.134,13.136
		C266.145,452.594,284.914,458.154,295.147,449.741z"/>
	<path fill="#8CC8BE" d="M308.037,841.109c-1.796,7.035-2.411,14.636-3.247,21.007c-1.205,9.126-2.73,19.015-2.829,28.658
		c-20.54-4.649-41.154-9.175-61.866-12.472c0.836-7.699-0.59-16.383-0.098-23.59c0.615-8.634,2.263-17.687,2.435-26.567
		c12.767,2.73,25.607,5.24,38.35,7.749C289.858,837.665,298.935,839.387,308.037,841.109z"/>
	<path fill="#FAC950" d="M294.064,428.414c6.371,5.436,7.995,15.645,1.082,21.327c-10.233,8.413-29.002,2.853-37.882-4.871
		c-3.468-3.001-7.872-8.093-7.134-13.136c0.984-6.814,22.41-9.102,26.616-8.487C282.995,424.134,288.948,424.035,294.064,428.414z"
		/>
	<path fill="#280412" d="M289.366,689.039c13.825,4.256,7.847,26.075-5.978,21.696c-13.16-4.182-26.813-5.707-40.318-8.142
		c-0.861,10.405-2.681,20.737-3.69,31.142c-0.689,7.257-1.279,14.784-0.049,21.991c0.984,5.879,2.976,9.446-0.32,14.956
		c-1.574,2.632-4.625,3.739-7.552,3.075c-13.283-3.001-12.25-23.984-11.709-34.512c0.861-16.334,4.674-32.421,3.739-48.829
		c-0.369-6.863,6.691-10.922,12.668-9.667C253.649,684.439,272.245,683.799,289.366,689.039z"/>
	<path fill="#8CC8BE" d="M275,157.605c0.566,14.612,2.484,29.322,7.035,43.196c-6.691-1.427-13.308-3.272-19.753-5.707
		c-0.763-0.271-1.476-0.418-2.189-0.492c-1.624-3.518-3.173-10.012-3.665-11.857c-2.558-9.421-4.083-19.138-5.043-28.83
		c-1.378-13.849-3.813-32.79,1.033-46.935c9.102,0.123,18.179,0.394,27.256,0.763C274.582,123.486,274.435,142.575,275,157.605z"/>
	<path fill="#08736D" d="M253.206,563.462c-3.567,11.488-4.379,24.599-6.051,35.693c-1.796,11.906-3.542,24.107-4.157,36.283
		c-1.55-0.197-3.124-0.369-4.674-0.566c-5.166-0.664-10.356-1.304-15.596-1.968c0.394-24.5-2.091-49.026-1.722-73.501
		C231.706,561.002,242.431,562.33,253.206,563.462z"/>
	<path fill="#FAC950" d="M224.573,824.136c-2.14,10.799-2.73,22.311-3.837,32.839c-0.344,3.296-1.255,16.309-1.255,16.309
		l-12.964-5.904c0,0-7.084-12.791-6.937-22.852c0.172-10.676,7.011-21.647,6.937-25.017
		C212.519,821.159,218.521,822.709,224.573,824.136z"/>
	<path fill="#8CC8BE" d="M183.394,925.975c10.504,2.214,21.007,4.428,31.487,6.666c-2.607,18.769-2.73,38.3-3.001,57.069
		c-0.098,6.937-0.984,18.326-0.123,29.223c-1.697-0.443-3.37-0.836-5.067-1.279c-9.864-2.534-19.704-5.117-29.543-7.724
		C179.754,982.06,179.335,953.649,183.394,925.975z"/>
	<path fill="#08736D" d="M209.617,557.656c-3.099,11.365-3.272,24.5-3.936,35.299c-0.787,12.472-0.763,24.919-0.271,37.39
		c-5.338-0.935-10.602-1.992-15.792-3.321c-7.281-1.894-10.824-3.149-11.611-10.553c-1.304-12.053,0.787-24.328-0.689-36.48
		c-1.181-9.815-3.591-19.728-4.379-29.691C184.649,554.237,197.809,555.86,209.617,557.656z"/>
	<path fill="#FAC950" d="M209.494,271.424c-6.273,15.842-8.757,34.34-9.471,50.575c-0.689,16.457,1.771,32.126,6.592,47.377
		c-7.158-1.402-14.317-3.149-21.45-5.313c-13.825-28.485-10.209-66.81-8.044-100.167
		C187.847,266.775,198.645,269.259,209.494,271.424z"/>
	<path fill="#08736D" d="M169.397,923.072c-8.56,26.542-10.602,53.478-14.12,81.029c-7.576-2.091-15.153-4.182-22.705-6.297
		c-3.419-0.959-8.191-1.697-11.783-2.804c1.648-13.456,2.46-27.034,3.05-40.564c0.59-13.283,1.353-26.96,0.123-40.318
		C139.116,916.996,154.269,919.973,169.397,923.072z"/>
</g>
</svg>
